<?xml version="1.0" encoding="UTF-8" standalone="no"?>
<!-- Created with Inkscape (http://www.inkscape.org/) -->

<svg
   xmlns:dc="http://purl.org/dc/elements/1.1/"
   xmlns:cc="http://creativecommons.org/ns#"
   xmlns:rdf="http://www.w3.org/1999/02/22-rdf-syntax-ns#"
   xmlns:svg="http://www.w3.org/2000/svg"
   xmlns="http://www.w3.org/2000/svg"
   xmlns:xlink="http://www.w3.org/1999/xlink"
   xmlns:sodipodi="http://sodipodi.sourceforge.net/DTD/sodipodi-0.dtd"
   xmlns:inkscape="http://www.inkscape.org/namespaces/inkscape"
   width="48"
   height="48"
   viewBox="0 0 12.7 12.7"
   version="1.1"
   id="svg4679"
   inkscape:version="0.92.2 (5c3e80d, 2017-08-06)"
   sodipodi:docname="favicon.svg"
   inkscape:export-filename="C:\wamp\www\test\apple-touch-icon.png"
   inkscape:export-xdpi="965"
   inkscape:export-ydpi="965">
  <sodipodi:namedview
     id="base"
     pagecolor="#336699"
     bordercolor="#666666"
     borderopacity="1.0"
     inkscape:pageopacity="0"
     inkscape:pageshadow="2"
     inkscape:zoom="16"
     inkscape:cx="28.785482"
     inkscape:cy="25.612394"
     inkscape:document-units="mm"
     inkscape:current-layer="layer2"
     showgrid="false"
     units="px"
     inkscape:pagecheckerboard="true"
     inkscape:window-width="1920"
     inkscape:window-height="1171"
     inkscape:window-x="1671"
     inkscape:window-y="-9"
     inkscape:window-maximized="1" />
  <defs
     id="defs4673">
    <linearGradient
       inkscape:collect="always"
       id="linearGradient892">
      <stop
         style="stop-color:#ffffe7;stop-opacity:1;"
         offset="0"
         id="stop888" />
      <stop
         style="stop-color:#ffffe7;stop-opacity:0;"
         offset="1"
         id="stop890" />
    </linearGradient>
    <radialGradient
       inkscape:collect="always"
       xlink:href="#linearGradient892"
       id="radialGradient894"
       cx="6.333463"
       cy="6.4161459"
       fx="6.333463"
       fy="6.4161459"
       r="6.3830724"
       gradientUnits="userSpaceOnUse" />
  </defs>
  <metadata
     id="metadata4676">
    <rdf:RDF>
      <cc:Work
         rdf:about="">
        <dc:format>image/svg+xml</dc:format>
        <dc:type
           rdf:resource="http://purl.org/dc/dcmitype/StillImage" />
        <dc:title></dc:title>
      </cc:Work>
    </rdf:RDF>
  </metadata>
  <g
     inkscape:groupmode="layer"
     id="layer4"
     inkscape:label="Fond 2"
     style="display:none">
    <rect
       style="fill:#336699;fill-opacity:1;fill-rule:nonzero;stroke:none;stroke-width:0.26458332;stroke-opacity:1"
       id="rect899"
       width="12.766145"
       height="12.766146"
       x="-0.049609374"
       y="0.033073019" />
    <rect
       style="fill:#336699;fill-opacity:1;fill-rule:nonzero;stroke:none;stroke-width:0.26458332;stroke-opacity:1"
       id="rect903"
       width="12.766145"
       height="12.766146"
       x="-0.049609374"
       y="0.033073019" />
    <rect
       style="fill:#336699;fill-opacity:1;fill-rule:nonzero;stroke:none;stroke-width:0.26458332;stroke-opacity:1"
       id="rect905"
       width="12.997655"
       height="13.129948"
       x="-0.28111979"
       y="-0.33072907" />
  </g>
  <g
     inkscape:groupmode="layer"
     id="layer3"
     inkscape:label="Fond"
     style="display:none">
    <rect
       style="fill:url(#radialGradient894);fill-opacity:1;fill-rule:nonzero;stroke:none;stroke-width:0.26458332;stroke-opacity:1"
       id="rect838"
       width="12.766145"
       height="12.766146"
       x="-0.049609374"
       y="0.033073019" />
  </g>
  <g
     style="display:inline"
     transform="translate(0,-284.3)"
     id="layer1"
     inkscape:groupmode="layer"
     inkscape:label="E">
    <flowRoot
       transform="matrix(0.48408933,0,0,0.42948189,-109.66873,202.04631)"
       style="font-style:normal;font-variant:normal;font-weight:normal;font-stretch:normal;font-size:40px;line-height:1.25;font-family:Exquisite;-inkscape-font-specification:Exquisite;letter-spacing:0px;word-spacing:0px;opacity:1;fill:#090000;fill-opacity:1;stroke:none"
       id="flowRoot4532"
       xml:space="preserve"><flowRegion
         id="flowRegion4534"
         style="opacity:1;fill:#090000;fill-opacity:1"><rect
           y="183.56866"
           x="225.26402"
           height="50.507637"
           width="37.375637"
           id="rect4536"
           style="opacity:1;fill:#090000;fill-opacity:1" /></flowRegion><flowPara
         style="font-style:normal;font-variant:normal;font-weight:normal;font-stretch:normal;font-family:'Sketch Block';-inkscape-font-specification:'Sketch Block';opacity:1;fill:#090000;fill-opacity:1"
         id="flowPara4538">E</flowPara></flowRoot>  </g>
  <g
     style="display:inline"
     inkscape:label="Nic"
     id="layer2"
     inkscape:groupmode="layer">
    <path
       inkscape:connector-curvature="0"
       d="M 12.62425,7.7121896 C 12.191206,7.5773028 11.948129,7.4411821 11.8952,7.3035967 c -0.03368,0.1375854 -0.155076,0.2737061 -0.36438,0.4085929 0.209304,0.1375853 0.3307,0.2739188 0.36438,0.4088057 0.05292,-0.1348869 0.296006,-0.2712204 0.72905,-0.4088057 z M 12.238081,4.3454714 c 0,-0.0027 -0.0013,-0.0027 -0.0037,0 -0.02406,-0.00539 -0.03613,-0.00539 -0.03613,0 l -0.02523,0.044436 C 12.086371,4.5571676 11.961305,4.6435065 11.79771,4.6489016 H 9.8886649 c -0.163595,0 -0.2886671,-0.091629 -0.3752763,-0.2750758 L 9.4881667,4.3251588 H 9.4486021 V 5.446199 h 0.039565 L 9.538622,5.312681 C 9.6107927,5.1319321 9.7274769,5.0414137 9.8886655,5.0414137 H 11.419011 L 9.4305364,6.5589864 v 0.2306411 h 2.3671906 c 0.163594,0 0.288666,0.086339 0.375275,0.2589944 l 0.02523,0.044436 h 0.03985 V 5.9883094 h -0.03985 l -0.05046,0.13373 c -0.07217,0.1807493 -0.188858,0.2710551 -0.350048,0.2710551 H 10.451712 L 12.238075,5.0414137 Z M 11.516199,7.8700419 11.328703,7.5179447 v -0.00804 h -0.0037 L 11.184211,7.2468914 h -0.01061 l -0.02895,0.040414 C 11.048421,7.4356817 10.919668,7.5099062 10.75848,7.5099062 H 9.8706028 c -0.1635944,0 -0.28499,-0.074225 -0.3643815,-0.2226007 l -0.021499,-0.040414 h -0.036124 v 0.946049 c 0.022493,-0.00231 0.044916,-0.00441 0.067376,-0.00609 0.076877,-0.1427928 0.1886019,-0.2184977 0.3368568,-0.2236926 h 1.6633679 z"
       style="font-style:normal;font-variant:normal;font-weight:normal;font-stretch:normal;font-size:40px;line-height:1.25;font-family:Exquisite;-inkscape-font-specification:Exquisite;letter-spacing:0px;word-spacing:0px;opacity:1;fill:#e5e5e5;fill-opacity:1;stroke:#000000;stroke-width:0.0396875;stroke-opacity:1;stroke-miterlimit:4;stroke-dasharray:none;stroke-dashoffset:0"
       id="flowRoot4512" />
  </g>
</svg>
